<?xml version="1.0" encoding="UTF-8"?>
<svg id="Layer_2" data-name="Layer 2" xmlns="http://www.w3.org/2000/svg" viewBox="0 0 596.04 535.31">
  <defs>
    <style>
      .cls-1 {
        fill: #f1f1f1;
      }

      .cls-2 {
        stroke: #f1f1f1;
      }

      .cls-2, .cls-3, .cls-4, .cls-5, .cls-6 {
        stroke-miterlimit: 10;
      }

      .cls-2, .cls-3, .cls-4, .cls-6 {
        fill: none;
      }

      .cls-7 {
        fill: #e4e4e4;
      }

      .cls-3 {
        stroke: #e4e4e4;
        stroke-width: 2px;
      }

      .cls-8 {
        fill: #e58420;
      }

      .cls-4, .cls-6 {
        stroke: #666;
        stroke-linecap: round;
      }

      .cls-5 {
        stroke: #979797;
      }

      .cls-5, .cls-9 {
        fill: #fff;
      }

      .cls-10 {
        fill: #e98f39;
      }

      .cls-11 {
        fill: #505050;
      }

      .cls-12 {
        fill: #b0b0b0;
      }

      .cls-13, .cls-14 {
        fill: #666;
      }

      .cls-15 {
        fill: #eca76b;
      }

      .cls-14 {
        opacity: .3;
      }

      .cls-16 {
        fill: #d67b1c;
      }

      .cls-17 {
        fill: #d7893c;
      }

      .cls-18 {
        fill: #7f7f7f;
      }

      .cls-6 {
        stroke-width: .47px;
      }
    </style>
  </defs>
  <g id="OBJECTS">
    <g>
      <g>
        <path class="cls-12" d="M544.23,179.45h-12.53c.09-.55.17-1.11.17-1.69,0-5.74-4.65-10.4-10.4-10.4-1.98,0-3.82.58-5.39,1.55.4-1.85.61-3.77.61-5.74,0-15.15-12.28-27.43-27.43-27.43s-27.43,12.28-27.43,27.43c0,2.07.25,4.08.68,6.02-1.67-1.15-3.69-1.82-5.87-1.82-5.74,0-10.4,4.65-10.4,10.4,0,.58.08,1.14.17,1.69h-24.76c-3.52,0-6.39,2.88-6.39,6.39s2.88,6.39,6.39,6.39h122.57c3.52,0,6.39-2.88,6.39-6.39s-2.88-6.39-6.39-6.39ZM466.92,179.04c.1.14.21.28.31.42h-.35c.02-.14.03-.28.04-.42Z"/>
        <path class="cls-12" d="M80.73,315.25h-7.85c.06-.35.11-.7.11-1.06,0-3.59-2.91-6.51-6.51-6.51-1.24,0-2.39.37-3.38.97.25-1.16.38-2.36.38-3.59,0-9.48-7.69-17.17-17.17-17.17s-17.17,7.69-17.17,17.17c0,1.3.16,2.55.43,3.77-1.05-.72-2.31-1.14-3.68-1.14-3.59,0-6.51,2.91-6.51,6.51,0,.36.05.71.11,1.06H4c-2.2,0-4,1.8-4,4s1.8,4,4,4h76.72c2.2,0,4-1.8,4-4s-1.8-4-4-4ZM32.33,314.99c.06.09.13.17.2.26h-.22c.01-.09.02-.17.03-.26Z"/>
        <path class="cls-12" d="M62.8,212.71h45.18c4.54,0,8.25-3.71,8.25-8.25h0c0-4.54-3.71-8.25-8.25-8.25h-45.18c-4.54,0-8.25,3.71-8.25,8.25h0c0,4.54,3.71,8.25,8.25,8.25Z"/>
        <path class="cls-12" d="M235.3,177.67h45.18c4.54,0,8.25-3.71,8.25-8.25h0c0-4.54-3.71-8.25-8.25-8.25h-45.18c-4.54,0-8.25,3.71-8.25,8.25h0c0,4.54,3.71,8.25,8.25,8.25Z"/>
        <path class="cls-12" d="M542.6,291.24h45.18c4.54,0,8.25-3.71,8.25-8.25h0c0-4.54-3.71-8.25-8.25-8.25h-45.18c-4.54,0-8.25,3.71-8.25,8.25h0c0,4.54,3.71,8.25,8.25,8.25Z"/>
        <path class="cls-12" d="M482.36,366.9h45.18c4.54,0,8.25-3.71,8.25-8.25h0c0-4.54-3.71-8.25-8.25-8.25h-45.18c-4.54,0-8.25,3.71-8.25,8.25h0c0,4.54,3.71,8.25,8.25,8.25Z"/>
      </g>
      <g>
        <rect class="cls-11" x="510.76" y="171.51" width="7.92" height="320.32" rx=".39" ry=".39"/>
        <rect class="cls-8" x="464.07" y="80" width="101.13" height="101.13" rx=".88" ry=".88" transform="translate(243.06 -325.66) rotate(45)"/>
        <path class="cls-18" d="M514.63,143.74c3.43,0,6.28,2.86,6.28,6.28s-2.85,6.28-6.28,6.28-6.29-2.79-6.29-6.28,2.79-6.28,6.29-6.28ZM509.27,102.04h10.71l-1.43,37.2h-7.85l-1.43-37.2Z"/>
      </g>
      <g>
        <path class="cls-4" d="M14.14,112.71L116.42,7.06c4.14-4.28,10.44-5.66,15.99-3.5l190.8,74.21"/>
        <path class="cls-16" d="M116.18,7.07c0,3.9,3.17,7.07,7.07,7.07s7.07-3.17,7.07-7.07-3.17-7.07-7.07-7.07-7.07,3.17-7.07,7.07Z"/>
        <path class="cls-16" d="M316.13,84.84c0,3.9,3.17,7.07,7.07,7.07s7.07-3.17,7.07-7.07-3.17-7.07-7.07-7.07-7.07,3.17-7.07,7.07Z"/>
        <path class="cls-13" d="M570.93,514.65H73.2c-6.31,0-11.48-5.16-11.48-11.48h0c0-6.31,5.16-11.48,11.48-11.48h497.74c6.31,0,11.47,5.16,11.47,11.48h0c0,6.31-5.16,11.48-11.47,11.48Z"/>
        <g>
          <rect class="cls-9" x="152.25" y="228.64" width="330.48" height="245.64" rx="3.42" ry="3.42"/>
          <path class="cls-8" d="M482.73,253.99v-16.38c0-4.95-4.01-8.96-8.96-8.96H161.21c-4.95,0-8.96,4.01-8.96,8.96v16.38h330.48Z"/>
          <path class="cls-7" d="M447.69,240.02c0,2.85,2.31,5.15,5.15,5.15s5.15-2.31,5.15-5.15-2.31-5.15-5.15-5.15-5.15,2.31-5.15,5.15Z"/>
          <path class="cls-7" d="M435.43,240.02c0,2.85,2.31,5.15,5.15,5.15s5.15-2.31,5.15-5.15-2.31-5.15-5.15-5.15-5.15,2.31-5.15,5.15Z"/>
          <path class="cls-18" d="M460.13,240.02c0,2.85,2.31,5.15,5.15,5.15s5.15-2.31,5.15-5.15-2.31-5.15-5.15-5.15-5.15,2.31-5.15,5.15Z"/>
          <rect class="cls-7" x="261.03" y="264.23" width="212.71" height="27.17" rx=".65" ry=".65"/>
          <path class="cls-2" d="M165.62,297.47h88.01c.42,0,.76.34.76.76v154.03c0,.42-.34.76-.76.76h-88.01c-.42,0-.76-.34-.76-.76v-154.03c0-.42.34-.76.76-.76Z"/>
          <rect class="cls-7" x="164.85" y="264.23" width="87.63" height="27.17" rx=".65" ry=".65"/>
          <rect class="cls-7" x="172.33" y="308.76" width="72.83" height="6.56" rx=".34" ry=".34"/>
          <rect class="cls-7" x="172.33" y="318.43" width="72.83" height="6.56" rx=".34" ry=".34"/>
          <rect class="cls-7" x="172.33" y="328.09" width="72.83" height="6.56" rx=".34" ry=".34"/>
          <rect class="cls-7" x="172.33" y="337.76" width="72.83" height="6.56" rx=".34" ry=".34"/>
          <rect class="cls-7" x="172.33" y="347.42" width="72.83" height="6.56" rx=".34" ry=".34"/>
          <rect class="cls-7" x="172.33" y="357.09" width="72.83" height="6.56" rx=".34" ry=".34"/>
          <rect class="cls-7" x="172.33" y="366.75" width="72.83" height="6.56" rx=".34" ry=".34"/>
          <rect class="cls-7" x="172.33" y="376.42" width="72.83" height="6.56" rx=".34" ry=".34"/>
          <rect class="cls-7" x="172.33" y="386.08" width="72.83" height="6.56" rx=".34" ry=".34"/>
          <rect class="cls-7" x="172.33" y="395.74" width="72.83" height="6.56" rx=".34" ry=".34"/>
          <rect class="cls-7" x="172.33" y="405.41" width="72.83" height="6.56" rx=".34" ry=".34"/>
          <rect class="cls-7" x="172.33" y="415.07" width="72.83" height="6.56" rx=".34" ry=".34"/>
          <rect class="cls-7" x="172.33" y="424.74" width="72.83" height="6.56" rx=".34" ry=".34"/>
          <rect class="cls-7" x="172.33" y="434.4" width="72.83" height="6.56" rx=".34" ry=".34"/>
        </g>
        <g>
          <g>
            <g>
              <polygon class="cls-7" points="131.47 468.99 104.68 442.2 105.99 438.29 133.99 466.29 131.47 468.99"/>
              <polygon class="cls-7" points="107.2 468.99 133.99 442.2 132.68 438.29 104.68 466.29 107.2 468.99"/>
            </g>
            <g>
              <polygon class="cls-7" points="131.47 433.96 104.68 407.18 105.99 403.26 133.99 431.26 131.47 433.96"/>
              <polygon class="cls-7" points="107.2 433.96 133.99 407.18 132.68 403.26 104.68 431.26 107.2 433.96"/>
            </g>
            <g>
              <polygon class="cls-7" points="131.47 398.94 104.68 372.15 105.99 368.24 133.99 396.24 131.47 398.94"/>
              <polygon class="cls-7" points="107.2 398.94 133.99 372.15 132.68 368.24 104.68 396.24 107.2 398.94"/>
            </g>
            <g>
              <polygon class="cls-7" points="131.47 363.92 104.68 337.13 105.99 333.22 133.99 361.22 131.47 363.92"/>
              <polygon class="cls-7" points="107.2 363.92 133.99 337.13 132.68 333.22 104.68 361.22 107.2 363.92"/>
            </g>
            <g>
              <polygon class="cls-7" points="131.47 328.9 104.68 302.11 105.99 298.2 133.99 326.2 131.47 328.9"/>
              <polygon class="cls-7" points="107.2 328.9 133.99 302.11 132.68 298.2 104.68 326.2 107.2 328.9"/>
            </g>
            <g>
              <polygon class="cls-7" points="131.47 293.87 104.68 267.09 105.99 263.17 133.99 291.17 131.47 293.87"/>
              <polygon class="cls-7" points="107.2 293.87 133.99 267.09 132.68 263.17 104.68 291.17 107.2 293.87"/>
            </g>
            <g>
              <rect class="cls-7" x="103.48" y="121.8" width="4.72" height="352.92"/>
              <rect class="cls-7" x="130.83" y="121.8" width="4.72" height="352.92"/>
              <g>
                <polygon class="cls-7" points="131.47 258.85 104.68 232.06 105.99 228.15 133.99 256.15 131.47 258.85"/>
                <polygon class="cls-7" points="107.2 258.85 133.99 232.06 132.68 228.15 104.68 256.15 107.2 258.85"/>
              </g>
              <g>
                <polygon class="cls-7" points="131.47 223.83 104.68 197.04 105.99 193.13 133.99 221.13 131.47 223.83"/>
                <polygon class="cls-7" points="107.2 223.83 133.99 197.04 132.68 193.13 104.68 221.13 107.2 223.83"/>
              </g>
              <g>
                <polygon class="cls-7" points="131.47 188.81 104.68 162.02 105.99 158.11 133.99 186.11 131.47 188.81"/>
                <polygon class="cls-7" points="107.2 188.81 133.99 162.02 132.68 158.11 104.68 186.11 107.2 188.81"/>
              </g>
              <g>
                <polygon class="cls-7" points="131.47 153.79 104.68 127 105.99 123.09 133.99 151.08 131.47 153.79"/>
                <polygon class="cls-7" points="107.2 153.79 133.99 127 132.68 123.09 104.68 151.08 107.2 153.79"/>
              </g>
              <rect class="cls-16" x="98.84" y="113.19" width="43.75" height="39.45"/>
              <rect class="cls-8" x="113" y="113.19" width="43.75" height="39.45"/>
              <rect class="cls-16" x="95.25" y="454.76" width="43.75" height="39.45"/>
              <rect class="cls-8" x="113" y="454.76" width="43.75" height="39.45"/>
              <path class="cls-14" d="M150.44,454.76v28.68c0,2.46-1.99,4.45-4.45,4.45h-32.99v6.31h43.75v-39.45h-6.31Z"/>
            </g>
          </g>
          <rect class="cls-7" x="32.68" y="111.07" width="41.42" height="28.51"/>
          <rect class="cls-1" x="32.68" y="129.82" width="41.42" height="9.76"/>
          <circle class="cls-16" cx="21.42" cy="112.71" r="7.28"/>
          <g>
            <g>
              <rect class="cls-14" x="257.8" y="297.1" width="215.93" height="164.09" rx="1.21" ry="1.21"/>
              <rect class="cls-11" x="365.99" y="109.79" width="4.71" height="180.34"/>
              <rect class="cls-5" x="261.03" y="297.47" width="212.71" height="155.54" rx="1.17" ry="1.17"/>
              <g>
                <rect class="cls-7" x="268.97" y="326.71" width="194.63" height="75.94" rx="1.45" ry="1.45"/>
                <rect class="cls-7" x="268.97" y="304.62" width="74.56" height="17.6" rx=".63" ry=".63"/>
                <rect class="cls-7" x="270.36" y="408.52" width="41.9" height="8.63" rx=".42" ry=".42"/>
                <rect class="cls-7" x="270.36" y="420.6" width="193.74" height="8.63" rx=".29" ry=".29"/>
                <rect class="cls-7" x="270.36" y="432.79" width="193.74" height="8.63" rx=".29" ry=".29"/>
                <rect class="cls-7" x="320.94" y="408.52" width="41.9" height="8.63" rx=".42" ry=".42"/>
                <rect class="cls-7" x="371.52" y="408.52" width="41.9" height="8.63" rx=".42" ry=".42"/>
                <rect class="cls-7" x="422.1" y="408.52" width="41.9" height="8.63" rx=".42" ry=".42"/>
              </g>
            </g>
            <path class="cls-13" d="M368.5,279.23h0c5.15,0,9.32,4.17,9.32,9.32v9.32h-18.65v-9.32c0-5.15,4.17-9.32,9.32-9.32Z"/>
          </g>
          <g>
            <g>
              <polygon class="cls-7" points="26.78 110.66 53.57 83.87 57.48 85.18 29.48 113.18 26.78 110.66"/>
              <polygon class="cls-7" points="39.79 99.77 53.57 113.18 57.48 111.87 42.01 97.05 39.79 99.77"/>
            </g>
            <g>
              <polygon class="cls-7" points="61.81 110.66 88.59 83.87 92.51 85.18 64.51 113.18 61.81 110.66"/>
              <polygon class="cls-7" points="61.81 86.39 88.59 113.18 92.51 111.87 64.51 83.87 61.81 86.39"/>
            </g>
            <g>
              <polygon class="cls-7" points="96.83 110.66 123.62 83.87 127.53 85.18 99.53 113.18 96.83 110.66"/>
              <polygon class="cls-7" points="96.83 86.39 123.62 113.18 127.53 111.87 99.53 83.87 96.83 86.39"/>
            </g>
            <g>
              <polygon class="cls-7" points="131.85 110.66 158.64 83.87 162.55 85.18 134.55 113.18 131.85 110.66"/>
              <polygon class="cls-7" points="131.85 86.39 158.64 113.18 162.55 111.87 134.55 83.87 131.85 86.39"/>
            </g>
            <g>
              <polygon class="cls-7" points="166.87 110.66 193.66 83.87 197.57 85.18 169.57 113.18 166.87 110.66"/>
              <polygon class="cls-7" points="166.87 86.39 193.66 113.18 197.57 111.87 169.57 83.87 166.87 86.39"/>
            </g>
            <g>
              <polygon class="cls-7" points="201.89 110.66 228.68 83.87 232.6 85.18 204.59 113.18 201.89 110.66"/>
              <polygon class="cls-7" points="201.89 86.39 228.68 113.18 232.6 111.87 204.59 83.87 201.89 86.39"/>
            </g>
            <g>
              <polygon class="cls-7" points="50.15 87.38 54.34 82.67 343.73 82.67 348.06 87.38 50.15 87.38"/>
              <path class="cls-7" d="M21.05,112.38h0c0-1.3,1.06-2.36,2.36-2.36h347.53v4.72H23.4c-1.3,0-2.36-1.06-2.36-2.36Z"/>
              <g>
                <polygon class="cls-7" points="236.92 110.66 263.71 83.87 267.62 85.18 239.62 113.18 236.92 110.66"/>
                <polygon class="cls-7" points="236.92 86.39 263.71 113.18 267.62 111.87 239.62 83.87 236.92 86.39"/>
              </g>
              <g>
                <polygon class="cls-7" points="271.94 110.66 298.73 83.87 302.64 85.18 274.64 113.18 271.94 110.66"/>
                <polygon class="cls-7" points="271.94 86.39 298.73 113.18 302.64 111.87 274.64 83.87 271.94 86.39"/>
              </g>
              <g>
                <polygon class="cls-7" points="306.96 110.66 333.75 83.87 337.66 85.18 309.66 113.18 306.96 110.66"/>
                <polygon class="cls-7" points="306.96 86.39 333.75 113.18 337.66 111.87 309.66 83.87 306.96 86.39"/>
              </g>
              <g>
                <polygon class="cls-7" points="341.98 110.66 355.96 96.87 358.85 98.96 344.68 113.18 341.98 110.66"/>
                <polygon class="cls-7" points="341.98 86.39 368.77 113.18 370.78 110.27 344.68 83.87 341.98 86.39"/>
              </g>
            </g>
          </g>
        </g>
        <rect class="cls-10" x="119.65" y="118.76" width="36.8" height="28.56"/>
        <path class="cls-10" d="M170.68,248.3h11.51c2.37,0,4.32-1.94,4.32-4.32h0c0-2.37-1.94-4.32-4.32-4.32h-11.51c-2.37,0-4.32,1.94-4.32,4.32h0c0,2.37,1.94,4.32,4.32,4.32Z"/>
        <rect class="cls-10" x="184.35" y="232.86" width="20.15" height="8.64" rx="1.65" ry="1.65"/>
        <path class="cls-15" d="M138.05,130.6h11.51c2.37,0,4.32-1.94,4.32-4.32h0c0-2.37-1.94-4.32-4.32-4.32h-11.51c-2.37,0-4.32,1.94-4.32,4.32h0c0,2.37,1.94,4.32,4.32,4.32Z"/>
        <g>
          <path class="cls-10" d="M457.35,460.07h32.48v32.71c0,.7-.56,1.26-1.26,1.26h-29.96c-.7,0-1.26-.56-1.26-1.26v-32.71h0Z"/>
          <rect class="cls-14" x="458.89" y="459.83" width="4.01" height="29.89" rx=".42" ry=".42"/>
          <path class="cls-14" d="M465.39,489.72h0c-.61,0-1.11-.5-1.11-1.11v-27.67c0-.61.5-1.11,1.11-1.11h0c.61,0,1.11.5,1.11,1.11v27.67c0,.61-.5,1.11-1.11,1.11Z"/>
          <path class="cls-14" d="M485.16,460.07v29.84c0,1.82-1.48,3.3-3.3,3.3h-23.39c.58.52,1.34.84,2.18.84h25.89c1.82,0,3.3-1.48,3.3-3.3v-30.68h-4.67Z"/>
          <path class="cls-8" d="M489.28,461.62h-31.33c-1.13,0-2.04-.91-2.04-2.04h0c0-1.13.91-2.04,2.04-2.04h31.33c1.13,0,2.04.91,2.04,2.04h0c0,1.13-.91,2.04-2.04,2.04Z"/>
          <path class="cls-13" d="M456.5,465.79c0,.64.52,1.17,1.17,1.17s1.17-.52,1.17-1.17-.52-1.17-1.17-1.17-1.17.52-1.17,1.17Z"/>
          <path class="cls-13" d="M473,465.79c0,.64.52,1.17,1.17,1.17s1.17-.52,1.17-1.17-.52-1.17-1.17-1.17-1.17.52-1.17,1.17Z"/>
          <path class="cls-6" d="M474.17,465.79v11.58c0,3.08-2.5,5.58-5.58,5.58h-5.35c-3.08,0-5.58-2.5-5.58-5.58v-11.58"/>
          <path class="cls-14" d="M480.13,464.68h1.02c.48,0,.87-.39.87-.87h0c0-.48-.39-.87-.87-.87h-1.02c-.48,0-.87.39-.87.87h0c0,.48.39.87.87.87Z"/>
        </g>
        <path class="cls-3" d="M109.29,83.69L122.28,6.33c.15-.92,1.47-.92,1.62,0l13,78.02"/>
        <line class="cls-3" x1="114.55" y1="52.45" x2="132.32" y2="52.45"/>
        <g>
          <rect class="cls-11" x="558.15" y="426.07" width="3.43" height="68.23"/>
          <rect class="cls-11" x="505.01" y="426.07" width="3.43" height="68.23"/>
          <g>
            <polygon class="cls-9" points="516.84 429.31 511.62 456.09 518.77 456.09 523.99 429.31 516.84 429.31"/>
            <polygon class="cls-9" points="532.83 429.31 527.61 456.09 534.76 456.09 539.98 429.31 532.83 429.31"/>
            <polygon class="cls-9" points="499.65 429.31 499.65 456.09 502.79 456.09 508.01 429.31 499.65 429.31"/>
            <polygon class="cls-9" points="548.81 429.31 543.59 456.09 550.74 456.09 555.96 429.31 548.81 429.31"/>
            <polygon class="cls-9" points="566.81 429.31 564.8 429.31 559.58 456.09 566.81 456.09 566.81 429.31"/>
            <polygon class="cls-8" points="508.01 429.31 502.79 456.09 511.62 456.09 516.84 429.31 508.01 429.31"/>
            <polygon class="cls-8" points="523.99 429.31 518.77 456.09 527.61 456.09 532.83 429.31 523.99 429.31"/>
            <polygon class="cls-8" points="539.98 429.31 534.76 456.09 543.59 456.09 548.81 429.31 539.98 429.31"/>
            <polygon class="cls-8" points="555.96 429.31 550.74 456.09 559.58 456.09 564.8 429.31 555.96 429.31"/>
          </g>
          <polygon class="cls-14" points="562.8 429.33 562.8 452.17 499.62 452.17 499.62 456.09 566.81 456.09 566.81 429.31 562.8 429.33"/>
          <g>
            <polygon class="cls-9" points="516.84 463.87 511.62 485.85 518.77 485.85 523.99 463.87 516.84 463.87"/>
            <polygon class="cls-9" points="532.83 463.87 527.61 485.85 534.76 485.85 539.98 463.87 532.83 463.87"/>
            <polygon class="cls-9" points="499.65 463.87 499.65 485.85 502.79 485.85 508.01 463.87 499.65 463.87"/>
            <polygon class="cls-9" points="548.81 463.87 543.59 485.85 550.74 485.85 555.96 463.87 548.81 463.87"/>
            <polygon class="cls-9" points="566.81 463.87 564.8 463.87 559.58 485.85 566.81 485.85 566.81 463.87"/>
            <polygon class="cls-10" points="508.01 463.87 502.79 485.85 511.62 485.85 516.84 463.87 508.01 463.87"/>
            <polygon class="cls-10" points="523.99 463.87 518.77 485.85 527.61 485.85 532.83 463.87 523.99 463.87"/>
            <polygon class="cls-10" points="539.98 463.87 534.76 485.85 543.59 485.85 548.81 463.87 539.98 463.87"/>
            <polygon class="cls-10" points="555.96 463.87 550.74 485.85 559.58 485.85 564.8 463.87 555.96 463.87"/>
          </g>
          <polygon class="cls-14" points="562.8 463.9 562.8 481.92 499.62 481.92 499.62 485.85 566.81 485.85 566.81 463.87 562.8 463.9"/>
        </g>
        <g>
          <path class="cls-17" d="M220.6,469.1h-1.23c-12.52,0-22.66,10.15-22.66,22.66h46.55c0-12.52-10.15-22.66-22.66-22.66Z"/>
          <path class="cls-14" d="M221.83,469.16c6.43,4,10.72,11.11,10.72,19.23h0s-35.56,0-35.56,0c-.16,1.1-.28,2.22-.28,3.37h46.55c0-12.1-9.49-21.96-21.44-22.6Z"/>
          <path class="cls-15" d="M221.92,480.34h1.7c.82,0,1.48-.67,1.48-1.48h0c0-.82-.67-1.48-1.48-1.48h-1.7c-.82,0-1.48.67-1.48,1.48h0c0,.82.67,1.48,1.48,1.48Z"/>
          <path class="cls-15" d="M212.87,484.16h-4.24c-.82,0-1.48-.67-1.48-1.48h0c0-.82.67-1.48,1.48-1.48h4.24c.82,0,1.48.67,1.48,1.48h0c0,.82-.67,1.48-1.48,1.48Z"/>
          <g>
            <path class="cls-14" d="M234.36,478.5h-.58c-.37,0-.67-.3-.67-.67h0c0-.37.3-.67.67-.67h.58c.37,0,.67.3.67.67h0c0,.37-.3.67-.67.67Z"/>
            <path class="cls-14" d="M236.28,485.85h.5c.18,0,.33-.15.33-.33h0c0-.18-.15-.33-.33-.33h-.5c-.18,0-.33.15-.33.33h0c0,.18.15.33.33.33Z"/>
          </g>
          <g>
            <path class="cls-15" d="M212.86,475.08h.92c.48,0,.88-.39.88-.88h0c0-.48-.39-.88-.88-.88h-.92c-.48,0-.88.39-.88.88h0c0,.48.39.88.88.88Z"/>
            <path class="cls-15" d="M206.51,479.42h-.58c-.34,0-.63-.28-.63-.63h0c0-.34.28-.63.63-.63h.58c.34,0,.63.28.63.63h0c0,.34-.28.63-.63.63Z"/>
            <path class="cls-15" d="M225.38,486.01h.84c.3,0,.54-.24.54-.54h0c0-.3-.24-.54-.54-.54h-.84c-.3,0-.54.24-.54.54h0c0,.3.24.54.54.54Z"/>
            <path class="cls-15" d="M218.75,485.35h-.92c-.32,0-.58-.26-.58-.58h0c0-.32.26-.58.58-.58h.92c.32,0,.58.26.58.58h0c0,.32-.26.58-.58.58Z"/>
            <path class="cls-15" d="M201.46,485.93h1.17c.23,0,.42-.19.42-.42h0c0-.23-.19-.42-.42-.42h-1.17c-.23,0-.42.19-.42.42h0c0,.23.19.42.42.42Z"/>
            <path class="cls-15" d="M215.16,479.17h-.08c-.23,0-.42-.19-.42-.42h0c0-.23.19-.42.42-.42h.08c.23,0,.42.19.42.42h0c0,.23-.19.42-.42.42Z"/>
            <path class="cls-15" d="M222.67,473.66h.17c.41,0,.75-.34.75-.75h0c0-.41-.34-.75-.75-.75h-.17c-.41,0-.75.34-.75.75h0c0,.41.34.75.75.75Z"/>
          </g>
          <path class="cls-15" d="M240.01,492.79h18.22c.83,0,1.52-.68,1.52-1.52h0c0-.84-.68-1.52-1.52-1.52h-18.22c-.83,0-1.52.68-1.52,1.52h0c0,.84.68,1.52,1.52,1.52Z"/>
          <path class="cls-11" d="M206.47,494.59h-13.53c-.91,0-1.66-.75-1.66-1.66h0c0-.91.75-1.66,1.66-1.66h13.53c.91,0,1.66.75,1.66,1.66h0c0,.91-.75,1.66-1.66,1.66Z"/>
        </g>
        <g>
          <path class="cls-10" d="M261.07,455.49h-2.02c-20.66,0-37.4,16.74-37.4,37.4h76.82c0-20.65-16.74-37.4-37.4-37.4Z"/>
          <path class="cls-14" d="M263.1,455.59c10.6,6.6,17.68,18.33,17.68,31.74h-58.67c-.27,1.82-.46,3.66-.46,5.56h76.82c0-19.97-15.67-36.24-35.37-37.3Z"/>
          <path class="cls-15" d="M263.26,474.03h2.8c1.35,0,2.45-1.1,2.45-2.45h0c0-1.35-1.1-2.45-2.45-2.45h-2.8c-1.35,0-2.45,1.1-2.45,2.45h0c0,1.35,1.1,2.45,2.45,2.45Z"/>
          <path class="cls-15" d="M248.32,480.33h-7c-1.35,0-2.45-1.1-2.45-2.45h0c0-1.35,1.1-2.45,2.45-2.45h7c1.35,0,2.45,1.1,2.45,2.45h0c0,1.35-1.1,2.45-2.45,2.45Z"/>
          <g>
            <path class="cls-14" d="M283.78,471h-.96c-.61,0-1.1-.5-1.1-1.1h0c0-.61.5-1.1,1.1-1.1h.96c.61,0,1.1.5,1.1,1.1h0c0,.61-.5,1.1-1.1,1.1Z"/>
            <path class="cls-14" d="M286.95,483.12h.83c.3,0,.55-.25.55-.55h0c0-.3-.25-.55-.55-.55h-.83c-.3,0-.55.25-.55.55h0c0,.3.25.55.55.55Z"/>
          </g>
          <g>
            <path class="cls-15" d="M248.3,465.35h1.52c.8,0,1.45-.65,1.45-1.45h0c0-.8-.65-1.45-1.45-1.45h-1.52c-.8,0-1.45.65-1.45,1.45h0c0,.8.65,1.45,1.45,1.45Z"/>
            <path class="cls-15" d="M237.83,472.51h-.96c-.57,0-1.03-.47-1.03-1.03h0c0-.57.47-1.03,1.03-1.03h.96c.57,0,1.03.47,1.03,1.03h0c0,.57-.46,1.03-1.03,1.03Z"/>
            <path class="cls-15" d="M268.97,483.4h1.38c.49,0,.9-.4.9-.9h0c0-.49-.4-.9-.9-.9h-1.38c-.49,0-.9.4-.9.9h0c0,.49.4.9.9.9Z"/>
            <path class="cls-15" d="M258.01,482.3h-1.52c-.53,0-.96-.43-.96-.96h0c0-.53.43-.96.96-.96h1.52c.53,0,.96.43.96.96h0c0,.53-.43.96-.96.96Z"/>
            <path class="cls-15" d="M229.49,483.26h1.93c.38,0,.69-.31.69-.69h0c0-.38-.31-.69-.69-.69h-1.93c-.38,0-.69.31-.69.69h0c0,.38.31.69.69.69Z"/>
            <path class="cls-15" d="M252.09,472.1h-.14c-.38,0-.69-.31-.69-.69h0c0-.38.31-.69.69-.69h.14c.38,0,.69.31.69.69h0c0,.38-.31.69-.69.69Z"/>
            <path class="cls-15" d="M264.49,463.01h.28c.68,0,1.24-.56,1.24-1.24h0c0-.68-.56-1.24-1.24-1.24h-.28c-.68,0-1.24.56-1.24,1.24h0c0,.68.56,1.24,1.24,1.24Z"/>
          </g>
          <path class="cls-11" d="M293.11,494.59h30.06c1.38,0,2.51-1.13,2.51-2.51h0c0-1.38-1.13-2.51-2.51-2.51h-30.06c-1.38,0-2.51,1.13-2.51,2.51h0c0,1.38,1.13,2.51,2.51,2.51Z"/>
          <path class="cls-11" d="M237.77,497.55h-22.32c-1.5,0-2.73-1.23-2.73-2.73h0c0-1.5,1.23-2.73,2.73-2.73h22.32c1.5,0,2.73,1.23,2.73,2.73h0c0,1.5-1.23,2.73-2.73,2.73Z"/>
        </g>
        <path class="cls-15" d="M118.09,464.05h5.62c1.49,0,2.72-1.22,2.72-2.72h0c0-1.49-1.22-2.72-2.72-2.72h-5.62c-1.49,0-2.72,1.22-2.72,2.72h0c0,1.49,1.22,2.72,2.72,2.72Z"/>
        <path class="cls-15" d="M124.53,471.3h5.62c1.49,0,2.72-1.22,2.72-2.72h0c0-1.49-1.22-2.72-2.72-2.72h-5.62c-1.49,0-2.72,1.22-2.72,2.72h0c0,1.49,1.22,2.72,2.72,2.72Z"/>
        <path class="cls-14" d="M103.69,491.59h-3.44c-1.15,0-2.08-.94-2.08-2.08h0c0-1.15.94-2.08,2.08-2.08h3.44c1.15,0,2.08.94,2.08,2.08h0c0,1.15-.94,2.08-2.08,2.08Z"/>
        <path class="cls-14" d="M107.86,486.34h-3.44c-1.15,0-2.08-.94-2.08-2.08h0c0-1.15.94-2.08,2.08-2.08h3.44c1.15,0,2.08.94,2.08,2.08h0c0,1.15-.94,2.08-2.08,2.08Z"/>
        <path class="cls-15" d="M129.47,141.89h7.19c1.73,0,3.14-1.41,3.14-3.14h0c0-1.73-1.41-3.14-3.14-3.14h-7.19c-1.73,0-3.14,1.41-3.14,3.14h0c0,1.73,1.41,3.14,3.14,3.14Z"/>
        <path class="cls-14" d="M58.35,123.32h5.39c1.48,0,2.7-1.21,2.7-2.7h0c0-1.48-1.21-2.7-2.7-2.7h-5.39c-1.48,0-2.7,1.21-2.7,2.7h0c0,1.48,1.21,2.7,2.7,2.7Z"/>
      </g>
      <path class="cls-11" d="M181.41,507.69h375.22c1.6,0,2.91-1.31,2.91-2.91h0c0-1.6-1.31-2.91-2.91-2.91H181.41c-1.6,0-2.91,1.31-2.91,2.91h0c0,1.6,1.31,2.91,2.91,2.91Z"/>
      <path class="cls-11" d="M163.59,521.5h-78.54c-1.8,0-3.27-1.47-3.27-3.27h0c0-1.8,1.47-3.27,3.27-3.27h78.54c1.8,0,3.27,1.47,3.27,3.27h0c0,1.8-1.47,3.27-3.27,3.27Z"/>
      <path class="cls-11" d="M279.94,535.31h-78.54c-1.8,0-3.27-1.47-3.27-3.27h0c0-1.8,1.47-3.27,3.27-3.27h78.54c1.8,0,3.27,1.47,3.27,3.27h0c0,1.8-1.47,3.27-3.27,3.27Z"/>
    </g>
  </g>
</svg>